<mxfile host="app.diagrams.net" modified="2024-01-02T13:51:31.177Z" agent="Mozilla/5.0 (Macintosh; Intel Mac OS X 10_15_7) AppleWebKit/537.36 (KHTML, like Gecko) Chrome/120.0.0.0 Safari/537.36" etag="DdvMaesk7zfiE4MhTTQK" version="22.1.16" type="github">
  <diagram id="C5RBs43oDa-KdzZeNtuy" name="Page-1">
    <mxGraphModel dx="1434" dy="671" grid="1" gridSize="10" guides="1" tooltips="1" connect="1" arrows="1" fold="1" page="1" pageScale="1" pageWidth="400000" pageHeight="400000" math="0" shadow="0">
      <root>
        <mxCell id="WIyWlLk6GJQsqaUBKTNV-0" />
        <mxCell id="WIyWlLk6GJQsqaUBKTNV-1" parent="WIyWlLk6GJQsqaUBKTNV-0" />
        <mxCell id="dQerzM7ZEfUfbZ2gJVsY-29" value="" style="rounded=1;whiteSpace=wrap;html=1;absoluteArcSize=1;arcSize=14;strokeWidth=2;fillColor=#dae8fc;strokeColor=#6c8ebf;" vertex="1" parent="WIyWlLk6GJQsqaUBKTNV-1">
          <mxGeometry x="635" y="250" width="330" height="345" as="geometry" />
        </mxCell>
        <mxCell id="dQerzM7ZEfUfbZ2gJVsY-6" value="" style="rounded=1;whiteSpace=wrap;html=1;absoluteArcSize=1;arcSize=14;strokeWidth=2;fillColor=#dae8fc;strokeColor=#6c8ebf;" vertex="1" parent="WIyWlLk6GJQsqaUBKTNV-1">
          <mxGeometry x="40" y="220" width="330" height="360" as="geometry" />
        </mxCell>
        <mxCell id="dQerzM7ZEfUfbZ2gJVsY-20" style="rounded=0;orthogonalLoop=1;jettySize=auto;html=1;exitX=0.5;exitY=1;exitDx=0;exitDy=0;entryX=0.25;entryY=0;entryDx=0;entryDy=0;" edge="1" parent="WIyWlLk6GJQsqaUBKTNV-1" source="dQerzM7ZEfUfbZ2gJVsY-2" target="dQerzM7ZEfUfbZ2gJVsY-7">
          <mxGeometry relative="1" as="geometry" />
        </mxCell>
        <mxCell id="dQerzM7ZEfUfbZ2gJVsY-2" value="提交作业" style="rounded=0;whiteSpace=wrap;html=1;fillColor=#d5e8d4;strokeColor=#82b366;" vertex="1" parent="WIyWlLk6GJQsqaUBKTNV-1">
          <mxGeometry x="110" y="130" width="90" height="20" as="geometry" />
        </mxCell>
        <mxCell id="dQerzM7ZEfUfbZ2gJVsY-3" value="客户端" style="text;html=1;align=center;verticalAlign=middle;resizable=0;points=[];autosize=1;strokeColor=none;fillColor=none;" vertex="1" parent="WIyWlLk6GJQsqaUBKTNV-1">
          <mxGeometry x="30" y="190" width="60" height="30" as="geometry" />
        </mxCell>
        <mxCell id="dQerzM7ZEfUfbZ2gJVsY-21" style="rounded=0;orthogonalLoop=1;jettySize=auto;html=1;exitX=0.25;exitY=1;exitDx=0;exitDy=0;entryX=0.25;entryY=0;entryDx=0;entryDy=0;" edge="1" parent="WIyWlLk6GJQsqaUBKTNV-1" source="dQerzM7ZEfUfbZ2gJVsY-7" target="dQerzM7ZEfUfbZ2gJVsY-8">
          <mxGeometry relative="1" as="geometry" />
        </mxCell>
        <mxCell id="dQerzM7ZEfUfbZ2gJVsY-41" style="edgeStyle=orthogonalEdgeStyle;rounded=0;orthogonalLoop=1;jettySize=auto;html=1;exitX=0.75;exitY=1;exitDx=0;exitDy=0;entryX=0.75;entryY=0;entryDx=0;entryDy=0;" edge="1" parent="WIyWlLk6GJQsqaUBKTNV-1" source="dQerzM7ZEfUfbZ2gJVsY-7" target="dQerzM7ZEfUfbZ2gJVsY-8">
          <mxGeometry relative="1" as="geometry" />
        </mxCell>
        <mxCell id="dQerzM7ZEfUfbZ2gJVsY-7" value="解析作业参数" style="rounded=1;whiteSpace=wrap;html=1;absoluteArcSize=1;arcSize=14;strokeWidth=2;" vertex="1" parent="WIyWlLk6GJQsqaUBKTNV-1">
          <mxGeometry x="120" y="240" width="140" height="25" as="geometry" />
        </mxCell>
        <mxCell id="dQerzM7ZEfUfbZ2gJVsY-22" style="edgeStyle=orthogonalEdgeStyle;rounded=0;orthogonalLoop=1;jettySize=auto;html=1;exitX=0.25;exitY=1;exitDx=0;exitDy=0;entryX=0.25;entryY=0;entryDx=0;entryDy=0;" edge="1" parent="WIyWlLk6GJQsqaUBKTNV-1" source="dQerzM7ZEfUfbZ2gJVsY-8" target="dQerzM7ZEfUfbZ2gJVsY-9">
          <mxGeometry relative="1" as="geometry" />
        </mxCell>
        <mxCell id="dQerzM7ZEfUfbZ2gJVsY-42" style="edgeStyle=orthogonalEdgeStyle;rounded=0;orthogonalLoop=1;jettySize=auto;html=1;exitX=0.75;exitY=1;exitDx=0;exitDy=0;entryX=0.75;entryY=0;entryDx=0;entryDy=0;" edge="1" parent="WIyWlLk6GJQsqaUBKTNV-1" source="dQerzM7ZEfUfbZ2gJVsY-8" target="dQerzM7ZEfUfbZ2gJVsY-9">
          <mxGeometry relative="1" as="geometry" />
        </mxCell>
        <mxCell id="dQerzM7ZEfUfbZ2gJVsY-8" value="生成逻辑图StreamGraph" style="rounded=1;whiteSpace=wrap;html=1;absoluteArcSize=1;arcSize=14;strokeWidth=2;" vertex="1" parent="WIyWlLk6GJQsqaUBKTNV-1">
          <mxGeometry x="120" y="300" width="140" height="30" as="geometry" />
        </mxCell>
        <mxCell id="dQerzM7ZEfUfbZ2gJVsY-23" style="edgeStyle=orthogonalEdgeStyle;rounded=0;orthogonalLoop=1;jettySize=auto;html=1;exitX=0.25;exitY=1;exitDx=0;exitDy=0;entryX=0.25;entryY=0;entryDx=0;entryDy=0;" edge="1" parent="WIyWlLk6GJQsqaUBKTNV-1" source="dQerzM7ZEfUfbZ2gJVsY-9" target="dQerzM7ZEfUfbZ2gJVsY-14">
          <mxGeometry relative="1" as="geometry" />
        </mxCell>
        <mxCell id="dQerzM7ZEfUfbZ2gJVsY-43" style="edgeStyle=orthogonalEdgeStyle;rounded=0;orthogonalLoop=1;jettySize=auto;html=1;exitX=0.75;exitY=1;exitDx=0;exitDy=0;entryX=0.75;entryY=0;entryDx=0;entryDy=0;" edge="1" parent="WIyWlLk6GJQsqaUBKTNV-1" source="dQerzM7ZEfUfbZ2gJVsY-9" target="dQerzM7ZEfUfbZ2gJVsY-14">
          <mxGeometry relative="1" as="geometry" />
        </mxCell>
        <mxCell id="dQerzM7ZEfUfbZ2gJVsY-9" value="生成作业图JobGraph" style="rounded=1;whiteSpace=wrap;html=1;absoluteArcSize=1;arcSize=14;strokeWidth=2;" vertex="1" parent="WIyWlLk6GJQsqaUBKTNV-1">
          <mxGeometry x="120" y="350" width="140" height="30" as="geometry" />
        </mxCell>
        <mxCell id="dQerzM7ZEfUfbZ2gJVsY-27" style="edgeStyle=orthogonalEdgeStyle;rounded=0;orthogonalLoop=1;jettySize=auto;html=1;exitX=0.25;exitY=1;exitDx=0;exitDy=0;entryX=0.25;entryY=0;entryDx=0;entryDy=0;" edge="1" parent="WIyWlLk6GJQsqaUBKTNV-1" source="dQerzM7ZEfUfbZ2gJVsY-14" target="dQerzM7ZEfUfbZ2gJVsY-26">
          <mxGeometry relative="1" as="geometry" />
        </mxCell>
        <mxCell id="dQerzM7ZEfUfbZ2gJVsY-44" style="edgeStyle=orthogonalEdgeStyle;rounded=0;orthogonalLoop=1;jettySize=auto;html=1;exitX=0.75;exitY=1;exitDx=0;exitDy=0;entryX=0.75;entryY=0;entryDx=0;entryDy=0;" edge="1" parent="WIyWlLk6GJQsqaUBKTNV-1" source="dQerzM7ZEfUfbZ2gJVsY-14" target="dQerzM7ZEfUfbZ2gJVsY-26">
          <mxGeometry relative="1" as="geometry" />
        </mxCell>
        <mxCell id="dQerzM7ZEfUfbZ2gJVsY-14" value="封装提交" style="rounded=1;whiteSpace=wrap;html=1;absoluteArcSize=1;arcSize=14;strokeWidth=2;" vertex="1" parent="WIyWlLk6GJQsqaUBKTNV-1">
          <mxGeometry x="110" y="410" width="150" height="30" as="geometry" />
        </mxCell>
        <mxCell id="dQerzM7ZEfUfbZ2gJVsY-46" style="edgeStyle=orthogonalEdgeStyle;rounded=0;orthogonalLoop=1;jettySize=auto;html=1;exitX=0.75;exitY=1;exitDx=0;exitDy=0;entryX=0.25;entryY=1;entryDx=0;entryDy=0;" edge="1" parent="WIyWlLk6GJQsqaUBKTNV-1" source="dQerzM7ZEfUfbZ2gJVsY-26" target="dQerzM7ZEfUfbZ2gJVsY-30">
          <mxGeometry relative="1" as="geometry">
            <Array as="points">
              <mxPoint x="228" y="530" />
              <mxPoint x="750" y="530" />
            </Array>
          </mxGeometry>
        </mxCell>
        <mxCell id="dQerzM7ZEfUfbZ2gJVsY-53" style="edgeStyle=orthogonalEdgeStyle;rounded=0;orthogonalLoop=1;jettySize=auto;html=1;exitX=0.25;exitY=1;exitDx=0;exitDy=0;entryX=0.75;entryY=1;entryDx=0;entryDy=0;" edge="1" parent="WIyWlLk6GJQsqaUBKTNV-1" source="dQerzM7ZEfUfbZ2gJVsY-26" target="dQerzM7ZEfUfbZ2gJVsY-30">
          <mxGeometry relative="1" as="geometry">
            <Array as="points">
              <mxPoint x="143" y="570" />
              <mxPoint x="870" y="570" />
            </Array>
          </mxGeometry>
        </mxCell>
        <mxCell id="dQerzM7ZEfUfbZ2gJVsY-26" value="Actor通信" style="rounded=1;whiteSpace=wrap;html=1;absoluteArcSize=1;arcSize=14;strokeWidth=2;" vertex="1" parent="WIyWlLk6GJQsqaUBKTNV-1">
          <mxGeometry x="100" y="460" width="170" height="30" as="geometry" />
        </mxCell>
        <mxCell id="dQerzM7ZEfUfbZ2gJVsY-36" style="rounded=0;orthogonalLoop=1;jettySize=auto;html=1;exitX=0.75;exitY=0;exitDx=0;exitDy=0;entryX=0.5;entryY=1;entryDx=0;entryDy=0;" edge="1" parent="WIyWlLk6GJQsqaUBKTNV-1" source="dQerzM7ZEfUfbZ2gJVsY-30" target="dQerzM7ZEfUfbZ2gJVsY-34">
          <mxGeometry relative="1" as="geometry" />
        </mxCell>
        <mxCell id="dQerzM7ZEfUfbZ2gJVsY-38" style="rounded=0;orthogonalLoop=1;jettySize=auto;html=1;exitX=0.25;exitY=0;exitDx=0;exitDy=0;" edge="1" parent="WIyWlLk6GJQsqaUBKTNV-1" source="dQerzM7ZEfUfbZ2gJVsY-30" target="dQerzM7ZEfUfbZ2gJVsY-37">
          <mxGeometry relative="1" as="geometry" />
        </mxCell>
        <mxCell id="dQerzM7ZEfUfbZ2gJVsY-30" value="分发器" style="rounded=1;whiteSpace=wrap;html=1;absoluteArcSize=1;arcSize=14;strokeWidth=2;" vertex="1" parent="WIyWlLk6GJQsqaUBKTNV-1">
          <mxGeometry x="690" y="460" width="240" height="30" as="geometry" />
        </mxCell>
        <mxCell id="dQerzM7ZEfUfbZ2gJVsY-48" style="rounded=0;orthogonalLoop=1;jettySize=auto;html=1;exitX=0.5;exitY=0;exitDx=0;exitDy=0;entryX=0.75;entryY=1;entryDx=0;entryDy=0;" edge="1" parent="WIyWlLk6GJQsqaUBKTNV-1" source="dQerzM7ZEfUfbZ2gJVsY-34" target="dQerzM7ZEfUfbZ2gJVsY-35">
          <mxGeometry relative="1" as="geometry" />
        </mxCell>
        <mxCell id="dQerzM7ZEfUfbZ2gJVsY-34" value="JobMaster" style="rounded=1;whiteSpace=wrap;html=1;absoluteArcSize=1;arcSize=14;strokeWidth=2;" vertex="1" parent="WIyWlLk6GJQsqaUBKTNV-1">
          <mxGeometry x="830" y="410" width="80" height="30" as="geometry" />
        </mxCell>
        <mxCell id="dQerzM7ZEfUfbZ2gJVsY-35" value="资源管理器" style="rounded=1;whiteSpace=wrap;html=1;absoluteArcSize=1;arcSize=14;strokeWidth=2;" vertex="1" parent="WIyWlLk6GJQsqaUBKTNV-1">
          <mxGeometry x="690" y="270" width="240" height="30" as="geometry" />
        </mxCell>
        <mxCell id="dQerzM7ZEfUfbZ2gJVsY-47" style="rounded=0;orthogonalLoop=1;jettySize=auto;html=1;exitX=0.5;exitY=0;exitDx=0;exitDy=0;entryX=0.25;entryY=1;entryDx=0;entryDy=0;" edge="1" parent="WIyWlLk6GJQsqaUBKTNV-1" source="dQerzM7ZEfUfbZ2gJVsY-37" target="dQerzM7ZEfUfbZ2gJVsY-35">
          <mxGeometry relative="1" as="geometry" />
        </mxCell>
        <mxCell id="dQerzM7ZEfUfbZ2gJVsY-37" value="JobMaster" style="rounded=1;whiteSpace=wrap;html=1;absoluteArcSize=1;arcSize=14;strokeWidth=2;" vertex="1" parent="WIyWlLk6GJQsqaUBKTNV-1">
          <mxGeometry x="700" y="410" width="80" height="30" as="geometry" />
        </mxCell>
        <mxCell id="dQerzM7ZEfUfbZ2gJVsY-40" style="edgeStyle=orthogonalEdgeStyle;rounded=0;orthogonalLoop=1;jettySize=auto;html=1;exitX=0.5;exitY=1;exitDx=0;exitDy=0;entryX=0.75;entryY=0;entryDx=0;entryDy=0;" edge="1" parent="WIyWlLk6GJQsqaUBKTNV-1" source="dQerzM7ZEfUfbZ2gJVsY-39" target="dQerzM7ZEfUfbZ2gJVsY-7">
          <mxGeometry relative="1" as="geometry" />
        </mxCell>
        <mxCell id="dQerzM7ZEfUfbZ2gJVsY-39" value="提交作业" style="rounded=0;whiteSpace=wrap;html=1;fillColor=#d5e8d4;strokeColor=#82b366;" vertex="1" parent="WIyWlLk6GJQsqaUBKTNV-1">
          <mxGeometry x="180" y="180" width="90" height="20" as="geometry" />
        </mxCell>
      </root>
    </mxGraphModel>
  </diagram>
</mxfile>
